{"title":"Evil Knievel 1971 DVDRip XviD.avi","uid":8911615,"size":733839360,"categoryP":"video","categoryS":"movies","magnet":"?xt=urn:btih:5455dfa40284486bd97b841084c06d84c91f7a9d&amp;dn=Evil+Knievel+1971+DVDRip+XviD.avi&amp;tr=udp%3A%2F%2Ftracker.openbittorrent.com%3A80&amp;tr=udp%3A%2F%2Fopen.demonii.com%3A1337&amp;tr=udp%3A%2F%2Ftracker.coppersurfer.tk%3A6969&amp;tr=udp%3A%2F%2Fexodus.desync.com%3A6969","seeders":0,"leechers":2,"uploader":"acayouche","files":-1,"time":1379041594,"description":"Evil Knievel 1971 DVDRip XviD\n &lt;a href=&quot;\nhttp://www.imdb.com/title/tt0067069/?ref_=fn_al_tt_3&quot; rel=&quot;nofollow&quot; target=&quot;_NEW&quot;&gt;\nhttp://www.imdb.com/title/tt0067069/?ref_=fn_al_tt_3&lt;/a&gt;\n\n\nMediainfo:\n\n\nEvil Knievel 1971 DVDRip XviD.avi\nFormat                                   : AVI\nFormat/Info                              : Audio Video Interleave\nFile size                                : 700 MiB\nDuration                                 : 1h 31mn\nOverall bit rate                         : 1 072 Kbps\nWriting application                      : FairUse Wizard - http://fairusewizard.com\nWriting library                          : The best and REALLY easy backup tool\n\nVideo\nID                                       : 0\nFormat                                   : MPEG-4 Visual\nFormat profile                           : Advanced Simple@L5\nFormat settings, BVOP                    : 1\nFormat settings, QPel                    : No\nFormat settings, GMC                     : No warppoints\nFormat settings, Matrix                  : Default (MPEG)\nMuxing mode                              : Packed bitstream\nCodec ID                                 : XVID\nCodec ID/Hint                            : XviD\nDuration                                 : 1h 31mn\nBit rate                                 : 932 Kbps\nWidth                                    : 608 pixels\nHeight                                   : 464 pixels\nDisplay aspect ratio                     : 4:3\nFrame rate                               : 29.970 fps\nColor space                              : YUV\nChroma subsampling                       : 4:2:0\nBit depth                                : 8 bits\nScan type                                : Progressive\nCompression mode                         : Lossy\nBits/(Pixel*Frame)                       : 0.110\nStream size                              : 609 MiB (87%)\nWriting library                          : XviD 1.2.0.dev47 (UTC 2006-11-01)\n\nAudio\nID                                       : 1\nFormat                                   : MPEG Audio\nFormat version                           : Version 1\nFormat profile                           : Layer 3\nMode                                     : Joint stereo\nMode extension                           : MS Stereo\nCodec ID                                 : 55\nCodec ID/Hint                            : MP3\nDuration                                 : 1h 31mn\nBit rate mode                            : Constant\nBit rate                                 : 128 Kbps\nChannel(s)                               : 2 channels\nSampling rate                            : 48.0 KHz\nCompression mode                         : Lossy\nStream size                              : 83.6 MiB (12%)\nAlignment                                : Aligned on interleaves\nInterleave, duration                     : 33 ms (1.00 video frame)\nInterleave, preload duration             : 504 ms\nWriting library                          : LAME3.97 \nEncoding settings                        : -m j -V 4 -q 2 -lowpass 17 -b 128\n\n","torrent":{"xt":"urn:btih:5455dfa40284486bd97b841084c06d84c91f7a9d","amp;dn":"Evil+Knievel+1971+DVDRip+XviD.avi","amp;tr":["udp%3A%2F%2Ftracker.openbittorrent.com%3A80","udp%3A%2F%2Fopen.demonii.com%3A1337","udp%3A%2F%2Ftracker.coppersurfer.tk%3A6969","udp%3A%2F%2Fexodus.desync.com%3A6969"],"infoHash":"5455dfa40284486bd97b841084c06d84c91f7a9d","infoHashBuffer":{"type":"Buffer","data":[84,85,223,164,2,132,72,107,217,123,132,16,132,192,109,132,201,31,122,157]},"announce":[],"urlList":[]}}